<svg xmlns="http://www.w3.org/2000/svg" width="29.811" height="29.811" viewBox="0 0 29.811 29.811">
  <g id="google" transform="translate(-2 -2)">
    <path id="Path_1" data-name="Path 1" d="M24.409,11.676a17.259,17.259,0,0,0-.271-3.049H10.1v5.767h8.023a6.856,6.856,0,0,1-2.976,4.5v3.741h4.818a14.542,14.542,0,0,0,4.444-10.956Z" transform="translate(6.805 5.568)" fill="#4285f4"/>
    <path id="Path_2" data-name="Path 2" d="M16.181,23.712a14.226,14.226,0,0,0,9.863-3.61l-4.816-3.741A8.993,8.993,0,0,1,7.841,11.639H2.862V15.5a14.9,14.9,0,0,0,13.319,8.211Z" transform="translate(0.724 8.098)" fill="#34a853"/>
    <path id="Path_3" data-name="Path 3" d="M8.566,15.988a8.813,8.813,0,0,1,0-5.664V6.462H3.586a14.92,14.92,0,0,0,0,13.389l4.979-3.862Z" transform="translate(0 3.749)" fill="#fbbc05"/>
    <path id="Path_4" data-name="Path 4" d="M16.181,7.929a8.049,8.049,0,0,1,5.7,2.227l4.277-4.273A14.329,14.329,0,0,0,16.181,2,14.9,14.9,0,0,0,2.862,10.211l4.979,3.862a8.882,8.882,0,0,1,8.34-6.146Z" transform="translate(0.724 0)" fill="#ea4335"/>
    <path id="Path_5" data-name="Path 5" d="M2,2H31.811V31.811H2Z" transform="translate(0 0)" fill="none"/>
  </g>
</svg>
